<?xml version="1.0" encoding="UTF-8"?>
<svg id="Layer_1" data-name="Layer 1" xmlns="http://www.w3.org/2000/svg" viewBox="0 0 155.96 155.96">
  <defs>
    <style>
      .cls-1 {
        fill: #898a5b;
      }

      .cls-2 {
        fill: none;
      }

      .cls-2, .cls-3, .cls-4, .cls-5, .cls-6 {
        stroke: #231f20;
        stroke-width: 1.19px;
      }

      .cls-2, .cls-5, .cls-6 {
        stroke-linecap: round;
        stroke-miterlimit: 10;
      }

      .cls-3 {
        fill: #fff;
      }

      .cls-3, .cls-4 {
        stroke-linejoin: round;
      }

      .cls-4, .cls-5 {
        fill: #9b8579;
      }

      .cls-6 {
        fill: #231f20;
      }
    </style>
  </defs>
  <rect class="cls-1" width="155.96" height="155.96"/>
  <g>
    <path class="cls-4" d="M131.34,121.03l-52.25.9-52.25-.9c-6.86-.12-11.11-7.49-7.79-13.49l25.34-45.7,17.36-28.9c-.01.22-.02.45-.03.67,0,0,9.25,11.49,18.31,0,0,0,9.81,11.9,16.79,0l16.95,28.23,25.34,45.7c3.32,6-.94,13.37-7.79,13.49Z"/>
    <line class="cls-2" x1="63.94" y1="122.06" x2="63.94" y2="141.78"/>
    <ellipse class="cls-5" cx="58.17" cy="141.78" rx="5.77" ry="3.45"/>
    <line class="cls-2" x1="98.98" y1="122.06" x2="98.98" y2="141.78"/>
    <ellipse class="cls-5" cx="93.21" cy="141.78" rx="5.77" ry="3.45"/>
    <path class="cls-2" d="M118.45,70.26s10.51-6.03,12.64-15.65"/>
    <ellipse class="cls-5" cx="132.01" cy="54.61" rx="3.45" ry="5.77" transform="translate(14.5 135.85) rotate(-57.13)"/>
    <path class="cls-2" d="M22.02,57.5s.26,13.11,15.96,15.93"/>
    <path class="cls-2" d="M75.52,70.26s5.16,8.38,12.41,0"/>
    <circle class="cls-6" cx="70.6" cy="62.67" r="3.8"/>
    <circle class="cls-6" cx="91.72" cy="62.67" r="3.8"/>
    <path class="cls-3" d="M96.83,33.61c-6.98,11.9-16.79,0-16.79,0-9.06,11.49-18.31,0-18.31,0,0-.23.02-.45.03-.67l9.55-15.89c3.53-5.88,12.05-5.88,15.57,0l9.95,16.57Z"/>
    <ellipse class="cls-5" cx="22.97" cy="56.04" rx="3.45" ry="5.77" transform="translate(-36.56 44.92) rotate(-57.13)"/>
  </g>
</svg>